HIERARCHY
ROOT Hips
{
	OFFSET 0.000000 0.000000 0.000000 
	CHANNELS 6 Xposition Yposition Zposition Yrotation Zrotation Xrotation 
	JOINT Lumbar
	{
		OFFSET 0.000000 0.000000 0.000000 
		CHANNELS 3 Zrotation Xrotation Yrotation
		JOINT Neck
		{
			OFFSET 0.000000 0.445665 0.000000 
			CHANNELS 3 Zrotation Xrotation Yrotation
			End Site
			{
				OFFSET 0.000000 0.227535 0.000000 
			}
		}
		JOINT RightShoulder
		{
			OFFSET 0.019635 0.377685 0.194865 
			CHANNELS 3 Zrotation Xrotation Yrotation
			JOINT RightElbow
			{
				OFFSET 0.000000 -0.243375 0.000000 
				CHANNELS 2 Zrotation Yrotation
				JOINT RightWrist
				{
					OFFSET 0.000000 -0.264825 0.000000 
					CHANNELS 2 Zrotation Xrotation
					End Site
					{
						OFFSET 0.006600 -0.176220 0.000990 
					}
				}
			}
		}
		JOINT LeftShoulder
		{
			OFFSET 0.019635 0.377685 -0.194865 
			CHANNELS 3 Zrotation Xrotation Yrotation
			JOINT LeftElbow
			{
				OFFSET 0.000000 -0.243375 0.000000 
				CHANNELS 2 Zrotation Yrotation
				JOINT LeftWrist
				{
					OFFSET 0.000000 -0.264825 0.000000 
					CHANNELS 2 Zrotation Xrotation
					End Site
					{
						OFFSET 0.006600 -0.176220 -0.000990 
					}
				}
			}
		}
	}
	JOINT RightHip
	{
		OFFSET 0.052140 -0.069960 0.075570 
		CHANNELS 3 Zrotation Xrotation Yrotation
		JOINT RightKnee
		{
			OFFSET 0.000000 -0.402270 0.000000 
			CHANNELS 1 Zrotation
			JOINT RightAnkle
			{
				OFFSET 0.000000 -0.404085 0.000000 
				CHANNELS 3 Zrotation Xrotation Yrotation
				End Site
				{
					OFFSET 0.204105 -0.089430 0.008415 
				}
			}
		}
	}
	JOINT LeftHip
	{
		OFFSET 0.052140 -0.069960 -0.075570 
		CHANNELS 3 Zrotation Xrotation Yrotation
		JOINT LeftKnee
		{
			OFFSET 0.000000 -0.402270 0.000000 
			CHANNELS 1 Zrotation
			JOINT LeftAnkle
			{
				OFFSET 0.000000 -0.404085 0.000000 
				CHANNELS 3 Zrotation Xrotation Yrotation
				End Site
				{
					OFFSET 0.204105 -0.089430 -0.008415 
				}
			}
		}
	}
}
MOTION
Frames: 17
Frame Time: 0.02
-0.50221 0.71008 -0.00219 896.44746 0 -5.75902 -2.11814 5.79409 4.80619 -40.65085 -2.25854 2.20456 38.53841 -13.37941 29.16668 75.61641 102.89349 -34.73925 -6.08535 41.62735 15.3913 -35.09628 77.01174 -97.95528 -57.31606 4.95826 57.92979 0.44178 -7.5888 -74.04217 12.75935 3.50413 6.51969 68.58038 4.12281 -14.98228 -90.26033 -4.47966 3.66689 9.54221
-0.50015 0.70919 -0.00153 896.37041 0 -5.82829 -1.39118 5.98605 4.63751 -41.04209 -2.62807 1.58897 39.18136 -12.71322 29.73107 74.78233 102.94101 -34.01994 -6.14611 41.97842 15.90882 -34.96772 77.27604 -96.83114 -56.10649 4.87656 58.42251 0.66735 -7.24715 -73.62523 12.34445 2.87934 5.94704 69.23718 3.84341 -14.87982 -90.74565 -4.94034 3.60639 9.7062
-0.49796 0.70828 -0.0008 896.34163 0 -5.89033 -0.80312 6.22659 4.44824 -41.38095 -3.04167 0.79619 39.94609 -12.01358 30.4275 73.9392 103.01897 -33.24296 -6.21576 42.23771 16.59197 -34.79975 77.65425 -95.48609 -54.81608 4.78352 58.95483 0.8827 -6.83975 -73.05912 11.95803 2.30746 5.33839 69.98867 3.47259 -14.80785 -91.30284 -5.49688 3.50961 9.69984
-0.49584 0.70738 -0.00014 896.29157 0 -5.95535 -0.15729 6.43827 4.26327 -41.772 -3.41378 0.10679 40.67854 -11.35662 31.05369 73.12454 103.06009 -32.49529 -6.27718 42.57108 17.17575 -34.66068 77.9616 -94.25596 -53.57109 4.69641 59.46768 1.10281 -6.45981 -72.55164 11.5467 1.72946 4.78082 70.70145 3.1547 -14.70537 -91.83718 -5.99624 3.43199 9.76033
-0.49368 0.70652 0.00067 896.23679 0 -6.02168 0.51192 6.68113 4.10009 -42.04739 -3.88472 -0.68672 41.31839 -10.57588 31.72775 72.20143 103.20055 -31.73279 -6.35658 42.76812 17.8723 -34.47263 78.35835 -92.956 -52.2848 4.60503 59.98587 1.32647 -6.08512 -72.07768 11.18094 1.06842 4.07271 71.39267 2.78764 -14.67378 -92.32603 -6.55495 3.3432 9.86691
-0.49157 0.70555 0.0012 896.20431 0 -6.08333 1.09878 6.86944 3.88721 -42.55161 -4.1567 -1.29986 42.17901 -10.05071 32.32984 71.50662 103.1401 -30.98703 -6.40066 43.2295 18.3661 -34.37728 78.59212 -91.7549 -51.06498 4.52051 60.5014 1.53772 -5.68747 -71.5006 10.72936 0.59462 3.66953 72.15217 2.50184 -14.50079 -92.92917 -7.0105 3.26907 9.83795
-0.48963 0.7042 0.00092 896.21846 0 -6.13667 1.49633 6.8971 3.53323 -43.67513 -3.87341 -1.40365 43.60835 -10.20613 32.72282 71.41547 102.52116 -30.31712 -6.34291 44.41369 18.29508 -34.55843 78.35331 -90.84958 -50.07645 4.45437 61.01534 1.73016 -5.22172 -70.67353 10.02893 0.63902 4.13674 73.08114 2.46162 -13.93926 -93.81832 -7.17776 3.24359 9.45751
-0.48776 0.70273 0.00036 896.25422 0 -6.18504 1.81471 6.86746 3.13173 -45.03377 -3.3864 -1.31274 45.25594 -10.6268 33.03401 71.56061 101.69759 -29.6647 -6.24942 45.8713 18.00604 -34.83217 77.94443 -90.05857 -49.15439 4.3963 61.52241 1.90774 -4.73942 -69.74905 9.243 0.86867 4.90896 74.07486 2.50687 -13.23278 -94.82207 -7.23451 3.23419 8.94936
-0.48587 0.70132 -7e-05 896.28239 0 -6.23387 2.16693 6.86254 2.75723 -46.30147 -2.98821 -1.28978 46.8113 -10.94855 33.36834 71.61641 100.96555 -28.99308 -6.17384 47.22378 17.79311 -35.05757 77.60867 -89.23577 -48.18327 4.33676 62.02316 2.08308 -4.27883 -68.87073 8.49967 1.0054 5.5299 75.03737 2.51371 -12.58639 -95.7824 -7.32828 3.21792 8.51198
-0.48391 0.69986 -0.00053 896.30281 0 -6.29007 2.52444 6.86507 2.35792 -47.50349 -2.60729 -1.36143 48.34565 -11.17774 33.76795 71.59394 100.24255 -28.36226 -6.09235 48.49586 17.68533 -35.31015 77.29442 -88.31765 -47.28466 4.26733 62.56619 2.29567 -3.75614 -67.9783 7.74018 1.18047 6.20413 76.01257 2.51484 -11.96497 -96.71105 -7.47969 3.1987 8.01611
-0.48211 0.69849 -0.00099 896.34385 0 -6.32978 2.85258 6.83766 2.00087 -48.8948 -2.1418 -1.18538 49.96899 -11.66317 34.00868 71.79291 99.44954 -27.65721 -6.01355 49.99712 17.30175 -35.52591 76.89374 -87.63111 -46.25711 4.22083 63.01768 2.42778 -3.35956 -67.09513 6.99528 1.31931 6.8388 76.97308 2.55018 -11.25734 -97.72894 -7.48533 3.18971 7.61253
-0.48068 0.69737 -0.00133 896.43646 0 -6.32553 3.13076 6.7428 1.75806 -50.78373 -1.48968 -0.39203 51.82531 -12.78918 33.84652 72.52649 98.53426 -26.69372 -5.95996 52.10003 16.23581 -35.64086 76.2953 -87.53076 -44.81373 4.23342 63.22949 2.33678 -3.31711 -66.25441 6.29849 1.31034 7.30297 77.89682 2.6526 -10.34178 -98.99049 -7.09775 3.20667 7.5061
-0.4794 0.69635 -0.00166 896.5488 0 -6.30475 3.38032 6.61939 1.56192 -52.84786 -0.76044 0.64655 53.75452 -14.16266 33.52478 73.47777 97.55333 -25.66476 -5.9089 54.41604 14.89635 -35.71132 75.61714 -87.6644 -43.24727 4.26918 63.3473 2.16613 -3.40214 -65.42907 5.62188 1.25877 7.71456 78.79888 2.78819 -9.3455 -100.3324 -6.56875 3.233 7.49463
-0.47804 0.6953 -0.00201 896.65197 0 -6.29143 3.63632 6.50785 1.35405 -54.81243 -0.06738 1.58853 55.62422 -15.42668 33.26359 74.34274 96.58621 -24.69786 -5.85026 56.614 13.6615 -35.78698 74.97298 -87.70996 -41.7656 4.29604 63.50016 2.03504 -3.42787 -64.60127 4.94422 1.22799 8.14166 79.69821 2.91331 -8.38928 -101.62115 -6.11738 3.2545 7.43468
-0.4767 0.69418 -0.00232 896.75699 0 -6.27847 3.91836 6.39859 1.10542 -56.87488 0.64016 2.48184 57.61672 -16.69469 33.04553 75.16518 95.67213 -23.59367 -5.81615 58.91884 12.49324 -35.92945 74.32473 -87.68641 -40.16265 4.31679 63.68424 1.88952 -3.45867 -63.74836 4.22839 1.19746 8.61467 80.65519 3.02188 -7.41296 -102.98594 -5.61139 3.27999 7.39719
-0.47538 0.69322 -0.00269 896.86227 0 -6.26048 4.13893 6.27909 0.9522 -58.76511 1.32989 3.52307 59.36324 -18.00039 32.70663 76.12165 94.64405 -22.76152 -5.73374 61.03822 11.1355 -35.92074 73.67782 -87.85569 -38.78437 4.35502 63.78223 1.75501 -3.5095 -62.95583 3.59914 1.15414 8.97571 81.4833 3.17175 -6.46221 -104.20772 -5.17999 3.2979 7.33145
-0.47405 0.69269 -0.00326 896.96578 0 -6.23642 4.21019 6.13375 1.06173 -60.19469 1.97896 4.99104 60.45045 -19.4288 32.02286 77.42132 93.23682 -22.68084 -5.50245 62.67699 9.22467 -35.50785 72.97251 -88.54536 -38.03787 4.4414 63.65518 1.67347 -3.58382 -62.30006 3.19434 1.08262 9.03782 81.98405 3.42628 -5.5939 -105.03366 -5.04903 3.30307 7.21546
